<svg width="32" height="32" viewBox="0 0 32 32" fill="none" xmlns="http://www.w3.org/2000/svg">
<circle cx="16" cy="16" r="16" fill="#DE4A09" fill-opacity="0.05"/>
<path d="M16.2463 9.43331L22.2463 11.8333C22.4797 11.9266 22.6663 12.2066 22.6663 12.4533V14.6666C22.6663 15.0333 22.3663 15.3333 21.9997 15.3333H9.99967C9.63301 15.3333 9.33301 15.0333 9.33301 14.6666V12.4533C9.33301 12.2066 9.51968 11.9266 9.75301 11.8333L15.753 9.43331C15.8863 9.37998 16.113 9.37998 16.2463 9.43331Z" stroke="#DE4A09" stroke-miterlimit="10" stroke-linecap="round" stroke-linejoin="round"/>
<path d="M22.6663 22.6667H9.33301V20.6667C9.33301 20.3 9.63301 20 9.99967 20H21.9997C22.3663 20 22.6663 20.3 22.6663 20.6667V22.6667Z" stroke="#DE4A09" stroke-miterlimit="10" stroke-linecap="round" stroke-linejoin="round"/>
<path d="M10.667 20V15.3334" stroke="#DE4A09" stroke-miterlimit="10" stroke-linecap="round" stroke-linejoin="round"/>
<path d="M13.333 20V15.3334" stroke="#DE4A09" stroke-miterlimit="10" stroke-linecap="round" stroke-linejoin="round"/>
<path d="M16 20V15.3334" stroke="#DE4A09" stroke-miterlimit="10" stroke-linecap="round" stroke-linejoin="round"/>
<path d="M18.667 20V15.3334" stroke="#DE4A09" stroke-miterlimit="10" stroke-linecap="round" stroke-linejoin="round"/>
<path d="M21.333 20V15.3334" stroke="#DE4A09" stroke-miterlimit="10" stroke-linecap="round" stroke-linejoin="round"/>
<path d="M8.66699 22.6666H23.3337" stroke="#DE4A09" stroke-miterlimit="10" stroke-linecap="round" stroke-linejoin="round"/>
<path d="M16 13.6666C16.5523 13.6666 17 13.2189 17 12.6666C17 12.1143 16.5523 11.6666 16 11.6666C15.4477 11.6666 15 12.1143 15 12.6666C15 13.2189 15.4477 13.6666 16 13.6666Z" stroke="#DE4A09" stroke-miterlimit="10" stroke-linecap="round" stroke-linejoin="round"/>
</svg>
