<svg width="21" height="22" viewBox="0 0 21 22" fill="none" xmlns="http://www.w3.org/2000/svg">
<path d="M10.679 7.65144L15.8341 6.21478C14.6762 2.06011 10.3694 -0.36922 6.21478 0.788677C2.06011 1.94631 -0.369221 6.25307 0.788677 10.4077L5.95262 8.96867C6.971 7.40722 9 6.84193 10.679 7.65144Z" fill="#FCC949"/>
<path d="M19.9055 13.996C19.7322 13.0909 19.1445 12.102 18.1499 11.5137L17.1698 11.0076L15.8341 6.21478L10.679 7.65144C9 6.84193 6.971 7.40722 5.95262 8.96867L0.788677 10.4077L2.12465 15.2019L1.54865 16.1386C0.965682 17.2218 0.963272 18.3071 1.35879 19.1932" fill="#FCC949"/>
<path d="M19.904 13.9961C20.2631 15.2847 16.4009 17.4867 11.2773 18.9145L19.904 13.9961Z" fill="#FCC949"/>
<path d="M11.2805 18.9142C16.404 17.4861 20.2663 15.2839 19.9071 13.9955C19.548 12.707 15.1035 12.8202 9.98 14.2482C4.85652 15.6763 0.994258 17.8785 1.35339 19.1669C1.71252 20.4554 6.15705 20.3422 11.2805 18.9142Z" fill="#FCC949"/>
<path d="M19.0092 13.9258C19.3367 15.1014 15.8132 17.1103 11.1387 18.413C6.46458 19.7158 2.40953 19.8189 2.08203 18.6433L19.0092 13.9258Z" fill="#E47A32"/>
<path d="M14.2276 15.2803C14.7827 17.2718 13.6181 19.3361 11.6266 19.8912C9.63509 20.4464 7.57074 19.2818 7.01562 17.2903L14.2276 15.2803Z" fill="#FF954D"/>
<path d="M3.5845 9.68594L3.5861 9.69556L3.58612 9.69567C3.59035 9.72176 3.59194 9.73248 3.59344 9.74249C3.59491 9.75238 3.59628 9.76158 3.59998 9.78422L3.60007 9.78475C3.60936 9.84231 3.61943 9.89988 3.63028 9.95747L3.63038 9.95803C3.65227 10.0757 3.67765 10.1934 3.70517 10.3119C3.70519 10.312 3.70521 10.3121 3.70523 10.3122L3.5845 9.68594ZM3.5845 9.68594C3.55881 9.46246 3.54107 9.24148 3.53681 9.02102L3.5845 9.68594ZM3.88326 7.03654C3.8512 7.12171 3.82114 7.20751 3.79283 7.29423L3.55517 7.21665L3.79294 7.29389C3.73057 7.4859 3.67824 7.68085 3.63645 7.87822L3.88326 7.03654ZM3.88326 7.03654C3.89291 7.01117 3.90251 6.98618 3.91216 6.9615M3.88326 7.03654L3.91216 6.9615M3.91216 6.9615C3.91659 6.9543 3.91961 6.9486 3.9209 6.94612C3.92454 6.93916 3.92707 6.9335 3.92786 6.93172L3.93049 6.92563L3.93323 6.91885L3.93737 6.90805C3.94157 6.89687 3.94833 6.87845 3.95839 6.85055C4.12191 6.48417 4.32144 6.13214 4.54686 5.79608L4.54692 5.79599C4.6129 5.69753 4.68102 5.60055 4.75129 5.50478L4.60227 5.39544M3.91216 6.9615L4.54972 5.35689L4.60227 5.39544M4.60227 5.39544C4.67012 5.4052 4.735 5.39785 4.7819 5.38751M4.60227 5.39544C4.60216 5.39543 4.60206 5.39541 4.60196 5.3954L4.75096 5.50523C4.77569 5.47169 4.80047 5.43858 4.82586 5.40466C4.82883 5.4007 4.83181 5.39672 4.8348 5.39273M4.7819 5.38751L4.8156 5.41608C4.81565 5.41602 4.8157 5.41596 4.81575 5.41589C4.82178 5.40878 4.82824 5.40089 4.8348 5.39273M4.7819 5.38751L4.6256 5.25502C4.62562 5.25499 4.62564 5.25495 4.62567 5.25492L4.78217 5.38745C4.78209 5.38747 4.78201 5.38749 4.78193 5.38751C4.78192 5.38751 4.78191 5.38751 4.7819 5.38751ZM4.8348 5.39273C4.8413 5.38405 4.84784 5.3753 4.85444 5.36647M4.8348 5.39273C4.84912 5.37491 4.86392 5.35578 4.87572 5.34053C4.8828 5.33138 4.8888 5.32363 4.89297 5.31839M4.85444 5.36647L2.43909 5.89404C2.85289 5.00762 3.44954 4.2207 4.09265 3.51534C4.4503 3.1229 5.03304 3.20391 5.35527 3.49957L5.35529 3.49959C5.7447 3.85699 5.66654 4.43673 5.37112 4.76093M4.85444 5.36647L4.87948 5.33315L4.88096 5.33111L4.88273 5.32862L4.88776 5.32115C4.88834 5.32024 4.88931 5.31868 4.89045 5.31681M4.85444 5.36647L4.89045 5.31681M4.89297 5.31839C5.04529 5.128 5.20552 4.94285 5.37112 4.76093M4.89297 5.31839C4.8929 5.31848 4.89283 5.31857 4.89276 5.31866L4.89045 5.31681M4.89297 5.31839C4.89301 5.31834 4.89305 5.31829 4.8931 5.31823L4.89073 5.31635C4.89269 5.31312 4.89508 5.30911 4.89684 5.306C4.90445 5.29105 4.92123 5.12746 4.84558 4.99966C4.84184 4.99811 4.83808 4.99664 4.83432 4.99523C4.94861 4.85841 5.06627 4.72444 5.18625 4.59264C5.41279 4.34413 5.45001 3.92586 5.18625 3.68378C4.93935 3.45723 4.5192 3.41841 4.27739 3.68378C3.64381 4.37868 3.06486 5.14454 2.6656 5.99984L4.89045 5.31681M5.37112 4.76093L5.18627 4.59266L5.371 4.76106C5.37104 4.76102 5.37108 4.76097 5.37112 4.76093ZM1.75016 8.85858L1.75016 8.85856C1.7574 7.82285 2.00491 6.82353 2.43906 5.89409L1.75016 8.85858ZM1.75016 8.85858C1.74571 9.50343 1.83407 10.1484 1.97841 10.7675L1.75016 8.85858ZM3.30065 8.4729C3.37172 8.48043 3.43438 8.45517 3.47461 8.42571C3.49847 8.40825 3.51558 8.38915 3.52714 8.37375L3.55912 8.37668L3.30065 8.4729ZM3.36245 7.97636C3.38302 7.97936 3.40423 7.98517 3.42575 7.99444C3.50095 8.02686 3.53508 8.08457 3.5443 8.10087C3.54972 8.11046 3.55413 8.11985 3.55772 8.12856L3.33821 8.11666C3.34588 8.0698 3.35391 8.02304 3.36245 7.97636ZM4.33925 5.65681C4.40212 5.56299 4.46683 5.47055 4.53337 5.37926L3.73528 6.73706L3.9487 6.8141C3.94819 6.8063 3.94724 6.79737 3.94556 6.78772C3.94552 6.78749 3.94548 6.78721 3.94542 6.78689C3.9431 6.77318 3.928 6.68396 3.84028 6.62402C3.82623 6.61443 3.81224 6.60669 3.79842 6.60055C3.95446 6.27297 4.13719 5.95804 4.33925 5.65681ZM3.35327 9.8246C3.35077 9.80932 3.34841 9.79398 3.34605 9.7786C3.34386 9.76432 3.34166 9.75 3.33934 9.73569C3.33905 9.73392 3.33877 9.7322 3.3385 9.73055L3.4532 9.71718L3.45437 9.71704L3.35327 9.8246Z" fill="#FEE484" stroke="#FEE484" stroke-width="0.5"/>
</svg>
