<svg width="154" height="154" viewBox="0 0 154 154" fill="none" xmlns="http://www.w3.org/2000/svg">
<path d="M93.0053 118.603C123.902 105.892 146.803 90.3706 144.155 83.9343C141.507 77.4981 114.314 82.5847 83.4166 95.2955C52.5196 108.006 29.6192 123.528 32.267 129.964C34.9148 136.401 62.1083 131.314 93.0053 118.603Z" fill="#BD851D"/>
<path d="M89.2693 109.416C104.377 103.204 115.082 94.4172 113.18 89.7896C111.277 85.1621 97.487 86.4465 82.3789 92.6585C67.2709 98.8705 56.5659 107.658 58.4686 112.285C60.3713 116.913 74.1612 115.628 89.2693 109.416Z" fill="#844F15"/>
<path d="M71.4141 115.693L69.2509 101.183C68.8683 98.6232 65.5501 96.9845 61.8228 97.5428C58.0955 98.101 55.3933 100.628 55.7759 103.195L57.9439 117.705C50.8383 120.701 46.3097 126.382 47.1711 132.121C48.2756 139.527 57.8429 144.224 68.5579 142.619C79.2513 141.021 87.0331 133.735 85.9358 126.331C85.0744 120.587 79.0828 116.485 71.4021 115.693" fill="#FBB041"/>
<path d="M54.8086 130.972C53.952 125.228 58.4901 119.547 65.579 116.556L63.4109 102.047C63.1775 100.459 64.1376 98.8825 65.7618 97.7852C64.4839 97.4092 63.1381 97.3237 61.8228 97.535C58.0955 98.0932 55.3933 100.62 55.7759 103.187L57.9439 117.697C50.8383 120.693 46.3097 126.374 47.1711 132.113C48.2756 139.519 57.8429 144.216 68.5579 142.611C69.8357 142.417 71.0993 142.139 72.3405 141.779C63.2762 141.88 55.7831 137.467 54.8086 130.972Z" fill="#E09734"/>
<path d="M83.3526 126.89C83.6173 128.685 83.367 130.415 82.7318 131.887C82.5705 132.248 82.3877 132.602 82.1783 132.927C81.4179 134.041 79.3486 135.978 79.0069 134.397C78.8655 133.716 78.6815 133.044 78.4558 132.386C78.3414 132.063 78.2186 131.744 78.0877 131.428C76.6151 126.952 73.3883 127.602 70.7703 125.877C69.4733 125.095 70.3925 123.328 71.0879 122.489C71.3189 122.169 71.5619 121.882 71.8098 121.62C72.8132 120.566 73.9465 119.916 75.2146 119.806C75.5883 119.752 75.9658 119.731 76.3432 119.741C79.7312 119.88 82.7462 122.852 83.3526 126.89Z" fill="#F9C178"/>
<path d="M64.9522 16.3843C66.6919 20.6097 63.1379 26.0815 57.0212 28.5912C50.8901 31.1178 44.5255 29.7269 42.7858 25.4992C41.0461 21.2738 44.5953 15.802 50.7288 13.285C56.8383 10.7705 63.2125 12.1565 64.9522 16.3843Z" fill="#FBB041"/>
<path d="M61.4835 15.5958C61.8107 16.3875 61.7409 17.2754 61.3583 18.1272C61.2578 18.3432 61.1429 18.5523 61.0143 18.7528C60.5113 19.4627 59.0724 20.88 58.7043 20.2086C58.4721 19.7597 58.1672 19.3524 57.8019 19.0031C56.375 17.2225 53.9639 18.2932 51.8681 18.0911C50.8286 18.031 51.4037 16.9674 51.8729 16.4019C52.0293 16.195 52.1905 16.0025 52.3734 15.8172C53.0456 15.0716 53.8863 14.4974 54.8254 14.1425C55.1083 14.0313 55.3957 13.9317 55.6868 13.8441C58.2615 13.1102 60.752 13.8128 61.4835 15.5958Z" fill="#F9C178"/>
<path d="M51.3966 19.882C50.4798 17.6586 50.8408 15.132 52.1666 12.7715C51.6795 12.923 51.1987 13.094 50.7253 13.284C44.5941 15.8058 41.0521 21.2728 42.7822 25.4981C44.5219 29.7235 50.8865 31.1143 57.0176 28.5902C59.2674 27.6686 61.1732 26.3403 62.5953 24.8244C57.4315 25.3778 52.8981 23.5515 51.3966 19.882Z" fill="#E09734"/>
<path fill-rule="evenodd" clip-rule="evenodd" d="M120.769 72.3072C111.259 67.7089 104.628 60.6273 99.5049 52.0971C94.6683 44.0194 90.7702 35.4868 87.0164 26.9157C84.7425 21.7423 80.9407 19.8366 75.0189 20.2576C70.9528 20.5575 66.9253 21.2497 62.9924 22.3246C60.733 23.1403 58.4879 23.9873 56.2164 24.8512C53.7861 25.9196 51.4039 26.9855 49.0266 28.0948C47.8114 28.6651 46.5963 29.2402 45.3907 29.8201C42.3189 31.6391 39.4073 33.7159 36.6873 36.0282C32.1828 39.8902 30.8185 43.9183 32.8445 49.2C36.2061 57.9275 39.4401 66.7271 41.6827 75.8853C44.048 85.5585 44.3103 95.2556 40.79 105.213C38.9805 110.331 36.7956 115.324 34.6589 120.336C33.2873 123.544 31.9759 126.761 32.2237 130.199C32.6809 130.461 33.0058 130.327 33.2368 129.86C36.1964 123.941 41.6322 120.079 47.0222 116.279C56.3055 109.734 66.4165 104.515 76.7442 99.6807C79.1143 98.5666 81.5134 97.5127 83.934 96.4443C86.4053 95.4939 88.8572 94.5627 91.326 93.6868C102.077 89.8464 112.925 86.444 124.128 84.5695C130.627 83.4746 137.211 82.4015 143.474 84.519C143.972 84.6922 144.292 84.5623 144.427 84.057C142.192 81.4414 138.984 80.0746 135.762 78.7584C130.714 76.6962 125.651 74.6798 120.767 72.3193" fill="#FBB041"/>
<path fill-rule="evenodd" clip-rule="evenodd" d="M135.738 78.7086C130.689 76.6512 125.627 74.63 120.742 72.2743C111.232 67.6759 104.601 60.5919 99.4731 52.0594C94.6365 43.9816 90.7384 35.449 86.987 26.8828C84.7131 21.7045 80.9112 19.8036 74.9871 20.2271C70.9225 20.523 66.8963 21.2136 62.9654 22.2892C60.7084 23.1074 58.4633 23.9544 56.1894 24.8206C54.8347 25.415 53.492 26.0358 52.1445 26.6397C53.006 26.3173 53.8746 25.9852 54.7481 25.6676C58.6968 24.6041 62.6887 23.8966 66.7745 23.6007C72.6939 23.182 76.4958 25.0877 78.7697 30.2684C82.5283 38.837 86.4216 47.3672 91.2557 55.4402C96.3834 63.9823 103.015 71.0567 112.525 75.6551C117.409 78.0156 122.474 80.032 127.52 82.0894C128.634 82.5417 129.734 83.0278 130.802 83.5428C135.071 83.0807 139.33 83.0856 143.45 84.4764C143.943 84.64 144.265 84.5125 144.403 84.012C142.167 81.3843 138.96 80.02 135.738 78.7086Z" fill="#F9C178"/>
<path fill-rule="evenodd" clip-rule="evenodd" d="M51.614 110.55C53.7531 105.533 55.9356 100.538 57.7451 95.4247C61.2654 85.4676 61.0031 75.768 58.633 66.0973C56.3952 56.9512 53.1564 48.1563 49.7996 39.412C47.7736 34.1327 49.1403 30.1022 53.6472 26.2354C53.924 25.9923 54.2175 25.7662 54.5039 25.5352C52.6583 26.3629 50.8127 27.1642 48.9984 28.0208C47.7784 28.5911 46.5632 29.1662 45.3577 29.7437C42.2872 31.5606 39.3772 33.6359 36.6591 35.947C32.1498 39.809 30.7855 43.8443 32.8163 49.1188C36.1755 57.8535 39.4119 66.658 41.6521 75.8041C44.0222 85.4772 44.2845 95.1744 40.7594 105.127C38.9499 110.247 36.7698 115.238 34.6331 120.26C33.2615 123.462 31.9501 126.679 32.1979 130.113C32.6551 130.38 32.9727 130.241 33.2061 129.776C36.1706 123.859 41.6016 120 46.9916 116.195C48.0744 115.44 49.174 114.692 50.2785 113.96C50.6755 112.815 51.1303 111.674 51.614 110.543" fill="#E09734"/>
<path d="M149.598 66.2997C148.761 65.0846 147.931 63.8694 147.103 62.6783C146.976 62.4858 146.927 62.3222 146.836 62.149C146.725 61.9613 146.603 61.7712 146.523 61.5594C146.393 61.2421 146.311 60.9071 146.28 60.5656C146.275 60.5007 146.239 60.4405 146.23 60.3635C145.301 48.1398 138.595 35.9136 127.742 27.3209C121.912 22.7033 120.658 24.2866 116.346 18.0231C114.587 15.4629 115.706 13.2876 117.829 14.101C137.293 21.5218 153.793 45.4785 153.78 66.3046C153.783 68.5785 151.35 68.8504 149.598 66.2997Z" fill="#27AAE1"/>
<path d="M137.661 68.4461L135.614 65.4768C135.508 65.3156 135.467 65.2001 135.385 65.0437C135.301 64.8873 135.195 64.726 135.125 64.5552C135.026 64.2946 134.961 64.0219 134.933 63.7443C134.928 63.689 134.902 63.6336 134.892 63.5783C134.136 53.5177 128.609 43.4548 119.675 36.378C114.884 32.5906 113.854 33.8779 110.31 28.7334C108.856 26.6207 109.773 24.8304 111.525 25.497C127.546 31.6136 141.114 51.3136 141.11 68.463C141.112 70.3374 139.112 70.5492 137.661 68.4461ZM19.221 114.757L18.3476 110.45C18.3019 110.223 18.2176 110.072 18.1551 109.887C18.0997 109.68 18.0444 109.458 17.9481 109.251C17.8073 108.939 17.6226 108.649 17.3995 108.39C17.3586 108.339 17.3345 108.272 17.2936 108.214C9.14126 99.056 5.0001 85.7422 6.35241 71.9761C7.0791 64.5745 9.09073 64.7694 7.57719 57.3172C6.95157 54.2709 4.61751 53.5659 3.72479 55.6593C-4.45405 74.8203 1.31854 103.322 16.3215 117.781C17.9602 119.365 19.8346 117.801 19.221 114.764" fill="#27AAE1"/>
<path d="M29.0442 107.668C28.8011 106.499 28.5605 105.298 28.3271 104.138C28.2814 103.946 28.2261 103.835 28.1659 103.674C28.1154 103.503 28.0745 103.313 27.9999 103.144C27.8824 102.891 27.7301 102.655 27.5475 102.444C27.5114 102.396 27.4921 102.343 27.4609 102.293C20.745 94.7659 17.345 83.7958 18.4543 72.4624C19.0582 66.3818 20.6993 66.5334 19.4577 60.4071C18.95 57.8973 17.0226 57.3102 16.2862 59.0355C9.55837 74.8085 14.3083 98.2574 26.6524 110.161C28.0071 111.46 29.5495 110.168 29.0442 107.663" fill="#27AAE1"/>
</svg>
