<svg width="56" height="61" viewBox="0 0 56 61" fill="none" xmlns="http://www.w3.org/2000/svg">
<path d="M43.8864 32.9772V35.9545C43.8864 44.2018 41.9095 52.1661 38.1849 59.3144L37.509 60.5649L32.3076 57.6651C35.7613 51.4724 37.6965 44.5352 37.9109 37.3122L37.9318 35.9545V32.9772H43.8864ZM26.0225 24.0452H31.9772V35.9545L31.9622 37.083C31.7372 45.234 28.932 53.1034 23.9503 59.5587L23.2625 60.4219L18.6476 56.6589C23.1922 51.1087 25.7782 44.2141 26.0046 37.0442L26.0225 35.9545V24.0452ZM28.9998 12.136C32.948 12.136 36.7345 13.7043 39.5262 16.4961C42.3181 19.2879 43.8864 23.0744 43.8864 27.0225H37.9318C37.9318 24.6537 36.9907 22.3818 35.3156 20.7067C33.6406 19.0316 31.3687 18.0906 28.9998 18.0906C26.6309 18.0906 24.359 19.0316 22.6839 20.7067C21.0089 22.3818 20.0678 24.6537 20.0678 27.0225V35.9545C20.0678 42.6089 17.6264 48.888 13.3063 53.75L12.6751 54.4349L8.3639 50.3261C11.8473 46.6817 13.8846 41.8937 14.0953 36.8567L14.1132 35.9545V27.0225C14.1132 23.0744 15.6816 19.2879 18.4733 16.4961C21.2652 13.7043 25.0516 12.136 28.9998 12.136ZM28.9998 0.226592C36.1066 0.226592 42.9222 3.04976 47.9474 8.07494C52.9726 13.1002 55.7956 19.9158 55.7956 27.0225V35.9545C55.7956 41.01 55.1943 45.9882 54.0183 50.8115L53.6045 52.4162L47.8582 50.8502C49.0253 46.5717 49.6833 42.1503 49.8173 37.6457L49.8411 35.9545V27.0225C49.8411 23.1546 48.7647 19.363 46.7324 16.072C44.7001 12.781 41.792 10.1205 38.3337 8.38818C34.8753 6.65596 31.003 5.92021 27.1504 6.26345C23.2977 6.60669 19.6165 8.01537 16.5188 10.3317L12.2761 6.08597C17.0205 2.28477 22.9205 0.217618 28.9998 0.226592ZM8.06321 10.299L12.3089 14.5416C9.75538 17.9454 8.31056 22.0522 8.17039 26.3051L8.15851 27.0225L8.17039 32.9772C8.17039 36.3118 7.38437 39.5363 5.90167 42.4362L5.4372 43.2996L0.265625 40.3462C1.39695 38.3662 2.05792 36.157 2.18895 33.8466L2.21579 32.9772V27.0225C2.19809 20.9439 4.26159 15.0422 8.06321 10.299Z" fill="#DE4A09"/>
</svg>
