<svg width="121" height="118" viewBox="0 0 121 118" fill="none" xmlns="http://www.w3.org/2000/svg">
<path d="M61.0001 113.592C90.5981 113.592 114.592 89.5981 114.592 60.0001C114.592 30.4021 90.5981 6.4082 61.0001 6.4082C31.4021 6.4082 7.4082 30.4021 7.4082 60.0001C7.4082 89.5981 31.4021 113.592 61.0001 113.592Z" stroke="#DE4A09"/>
<path d="M75.8864 62.9772V65.9545C75.8864 74.2018 73.9095 82.1661 70.1849 89.3144L69.509 90.5649L64.3076 87.6651C67.7613 81.4724 69.6965 74.5352 69.9109 67.3122L69.9318 65.9545V62.9772H75.8864ZM58.0225 54.0452H63.9772V65.9545L63.9622 67.083C63.7372 75.234 60.932 83.1034 55.9503 89.5587L55.2625 90.4219L50.6476 86.6589C55.1922 81.1087 57.7782 74.2141 58.0046 67.0442L58.0225 65.9545V54.0452ZM60.9998 42.136C64.948 42.136 68.7345 43.7043 71.5262 46.4961C74.3181 49.2879 75.8864 53.0744 75.8864 57.0225H69.9318C69.9318 54.6537 68.9907 52.3818 67.3156 50.7067C65.6406 49.0316 63.3687 48.0906 60.9998 48.0906C58.6309 48.0906 56.359 49.0316 54.6839 50.7067C53.0089 52.3818 52.0678 54.6537 52.0678 57.0225V65.9545C52.0678 72.6089 49.6264 78.888 45.3063 83.75L44.6751 84.4349L40.3639 80.3261C43.8473 76.6817 45.8846 71.8937 46.0953 66.8567L46.1132 65.9545V57.0225C46.1132 53.0744 47.6816 49.2879 50.4733 46.4961C53.2652 43.7043 57.0516 42.136 60.9998 42.136ZM60.9998 30.2266C68.1066 30.2266 74.9222 33.0498 79.9474 38.0749C84.9726 43.1002 87.7956 49.9158 87.7956 57.0225V65.9545C87.7956 71.01 87.1943 75.9882 86.0183 80.8115L85.6045 82.4162L79.8582 80.8502C81.0253 76.5717 81.6833 72.1503 81.8173 67.6457L81.8411 65.9545V57.0225C81.8411 53.1546 80.7647 49.363 78.7324 46.072C76.7001 42.781 73.792 40.1205 70.3337 38.3882C66.8753 36.656 63.003 35.9202 59.1504 36.2634C55.2977 36.6067 51.6165 38.0154 48.5188 40.3317L44.2761 36.086C49.0205 32.2848 54.9205 30.2176 60.9998 30.2266ZM40.0632 40.299L44.3089 44.5416C41.7554 47.9454 40.3106 52.0522 40.1704 56.3051L40.1585 57.0225L40.1704 62.9772C40.1704 66.3118 39.3844 69.5363 37.9017 72.4362L37.4372 73.2996L32.2656 70.3462C33.397 68.3662 34.0579 66.157 34.189 63.8466L34.2158 62.9772V57.0225C34.1981 50.9439 36.2616 45.0422 40.0632 40.299Z" fill="#DE4A09"/>
</svg>
