<svg width="24" height="24" viewBox="0 0 24 24" fill="none" xmlns="http://www.w3.org/2000/svg">
<path d="M2.83315 18.2423C2.83315 18.2456 2.83315 18.2517 2.8294 18.2602C2.8308 18.2545 2.83174 18.2484 2.83315 18.2423Z" fill="#2377F1"/>
<path d="M20.6203 19.0125C20.466 19.0092 20.3136 18.9774 20.1708 18.9188L17.5092 17.9752L17.4896 17.9672C17.4315 17.943 17.3692 17.9309 17.3063 17.9316C17.2483 17.9316 17.1908 17.9421 17.1366 17.9625C17.0719 17.9869 16.4892 18.2058 15.878 18.3736C15.5466 18.4645 14.393 18.7613 13.4672 18.7613C11.101 18.7613 8.88846 17.8519 7.23799 16.2005C6.4317 15.3991 5.79236 14.4458 5.35698 13.3957C4.92161 12.3456 4.69884 11.2196 4.70159 10.0828C4.70157 9.4905 4.76537 8.8999 4.8919 8.32125C5.30393 6.41719 6.39518 4.68516 7.96455 3.44625C9.57441 2.18346 11.5618 1.49805 13.6078 1.5C16.0552 1.5 18.3356 2.4375 20.0297 4.13344C21.631 5.73985 22.5085 7.85204 22.5014 10.0805C22.5 11.7364 22.0056 13.3543 21.0811 14.7281L21.0722 14.7413L21.0375 14.7881C21.0296 14.7989 21.0216 14.8092 21.0141 14.82L21.0071 14.8327C20.9884 14.8644 20.9715 14.8971 20.9564 14.9306L21.6942 17.5528C21.7269 17.661 21.7445 17.7731 21.7467 17.8861C21.7469 18.0341 21.7179 18.1806 21.6614 18.3174C21.6048 18.4541 21.5219 18.5784 21.4172 18.683C21.3126 18.7876 21.1884 18.8706 21.0516 18.9271C20.9149 18.9837 20.7683 19.0127 20.6203 19.0125Z" fill="#2377F1"/>
<path d="M14.0564 19.9402C14.008 19.846 13.9398 19.7633 13.8566 19.6978C13.7734 19.6323 13.677 19.5854 13.5741 19.5605C13.3031 19.4888 12.9872 19.5009 12.7458 19.4831C10.4664 19.3246 8.32148 18.3464 6.70737 16.7292C5.2724 15.3023 4.33982 13.4478 4.05002 11.445C3.9844 10.9884 3.9844 10.875 3.9844 10.875C3.98437 10.7227 3.93796 10.574 3.85134 10.4487C3.76472 10.3234 3.64199 10.2274 3.4995 10.1736C3.357 10.1197 3.20149 10.1105 3.05365 10.1473C2.90581 10.184 2.77265 10.2648 2.6719 10.3791C2.6719 10.3791 2.30252 10.7813 2.12815 11.1848C1.63909 12.3117 1.43053 13.5403 1.52033 14.7653C1.61014 15.9904 1.99563 17.1755 2.64377 18.2189C2.76565 18.4219 2.76565 18.5156 2.73846 18.7266C2.61049 19.388 2.38643 20.5547 2.26971 21.1598C2.23107 21.3561 2.24544 21.5591 2.31135 21.7479C2.37727 21.9368 2.49234 22.1046 2.64471 22.2342L2.66627 22.2525C2.86784 22.4126 3.11762 22.4998 3.37502 22.5C3.51981 22.5001 3.66318 22.4716 3.7969 22.4161L6.30518 21.4481C6.39154 21.4153 6.48694 21.4153 6.5733 21.4481C7.56096 21.8156 8.58893 22.0106 9.56299 22.0106C10.7767 22.0118 11.9756 21.7451 13.0744 21.2297C13.3303 21.1097 13.7306 20.9794 13.965 20.7084C14.0537 20.6034 14.1097 20.4746 14.1259 20.338C14.1421 20.2014 14.118 20.0631 14.0564 19.9402Z" fill="#2377F1"/>
</svg>
