<svg width="21" height="20" viewBox="0 0 21 20" fill="none" xmlns="http://www.w3.org/2000/svg">
<path d="M17.6817 15.8438H17.6504L17.6192 15.8398C17.5137 15.8281 17.4082 15.8047 17.3067 15.7617L15.0918 14.9766L15.0762 14.9688C15.0293 14.9492 14.9785 14.9375 14.9238 14.9375C14.8731 14.9375 14.8262 14.9453 14.7793 14.9648C14.7285 14.9844 14.2402 15.168 13.7324 15.3086C13.4551 15.3828 12.4942 15.6328 11.7246 15.6328C9.75196 15.6328 7.90821 14.875 6.53321 13.5C5.16993 12.1367 4.41993 10.3281 4.41993 8.40234C4.41993 7.91016 4.47462 7.41406 4.58009 6.93359C4.92384 5.34766 5.83399 3.90625 7.13868 2.87109C8.45509 1.82422 10.127 1.25 11.8379 1.25C13.877 1.25 15.7793 2.03125 17.1895 3.44531C18.5254 4.78516 19.2559 6.54297 19.2481 8.40234C19.2481 9.78516 18.8379 11.125 18.0645 12.2773L18.0449 12.3086C18.0293 12.3281 18.0176 12.3477 18.002 12.3672C17.9824 12.3984 17.9707 12.4258 17.9629 12.4453L18.5762 14.6289C18.5996 14.7031 18.6113 14.7812 18.6192 14.8594V14.9063C18.6192 15.4219 18.1973 15.8438 17.6817 15.8438ZM15.5371 13.8086L17.2129 14.4023L16.7324 12.6875C16.6543 12.4023 16.7168 12.082 16.9238 11.7305L16.9277 11.7227C16.9629 11.668 16.9981 11.6133 17.0371 11.5586C17.666 10.6172 17.9981 9.52344 17.9981 8.39453C18.002 6.87109 17.4004 5.42578 16.3027 4.32422C15.127 3.14844 13.541 2.5 11.8379 2.5C8.92775 2.5 6.38478 4.47656 5.79493 7.19922C5.709 7.59375 5.66603 8 5.66603 8.40234C5.66603 11.6992 8.38087 14.3828 11.7207 14.3828C12.209 14.3828 12.9317 14.2344 13.4004 14.1055C13.8613 13.9805 14.3184 13.8086 14.3379 13.8008C14.5254 13.7305 14.7207 13.6953 14.9238 13.6953C15.1309 13.6914 15.3379 13.7305 15.5371 13.8086Z" fill="#979DA7"/>
<path d="M3.30669 18.75C3.09185 18.75 2.88482 18.6758 2.71685 18.543L2.70513 18.5352C2.44341 18.3164 2.32232 17.9688 2.38873 17.6367C2.50201 17.0547 2.73638 15.832 2.82232 15.3789C2.82232 15.3789 2.82232 15.3789 2.82232 15.375C2.16998 14.4063 1.80279 13.2734 1.75201 12.1094C1.70122 10.9414 1.97857 9.78516 2.54498 8.76172C2.71294 8.46094 3.09185 8.35156 3.39654 8.51953C3.69732 8.6875 3.80669 9.06641 3.63873 9.37109C2.70513 11.0508 2.78716 13.0859 3.86138 14.6836L3.86529 14.6875C4.00982 14.9063 4.14654 15.168 4.08013 15.4766C4.06451 15.5547 3.88482 16.4805 3.72466 17.3203L5.39263 16.668C5.69341 16.5508 6.02544 16.5547 6.32622 16.6797C7.03716 16.957 7.77935 17.1016 8.46685 17.1016C8.47076 17.1016 8.47076 17.1016 8.47466 17.1016C9.45904 17.1016 10.4317 16.8398 11.2833 16.3477C11.5801 16.1758 11.9629 16.2773 12.1387 16.5742C12.3106 16.8711 12.209 17.2539 11.9122 17.4297C10.8692 18.0352 9.68169 18.3516 8.47857 18.3516C8.47466 18.3516 8.47466 18.3516 8.47076 18.3516C7.62701 18.3516 6.72857 18.1758 5.86919 17.8398L5.85357 17.832L3.66997 18.6875C3.5606 18.7344 3.44341 18.7578 3.32232 18.7578C3.3106 18.75 3.3106 18.75 3.30669 18.75Z" fill="#979DA7"/>
</svg>
