<svg width="20" height="20" viewBox="0 0 20 20" fill="none" xmlns="http://www.w3.org/2000/svg">
<path d="M13.3337 10.7501V14.2501C13.3337 17.1667 12.167 18.3334 9.25033 18.3334H5.75033C2.83366 18.3334 1.66699 17.1667 1.66699 14.2501V10.7501C1.66699 7.83341 2.83366 6.66675 5.75033 6.66675H9.25033C12.167 6.66675 13.3337 7.83341 13.3337 10.7501Z" fill="#DE4A09" stroke="#DE4A09" stroke-width="1.5" stroke-linecap="round" stroke-linejoin="round"/>
<path d="M18.3337 5.75008V9.25008C18.3337 12.1667 17.167 13.3334 14.2503 13.3334H13.3337V10.7501C13.3337 7.83341 12.167 6.66675 9.25033 6.66675H6.66699V5.75008C6.66699 2.83341 7.83366 1.66675 10.7503 1.66675H14.2503C17.167 1.66675 18.3337 2.83341 18.3337 5.75008Z" stroke="#DE4A09" stroke-width="1.5" stroke-linecap="round" stroke-linejoin="round"/>
</svg>
