<svg width="18" height="18" viewBox="0 0 18 18" fill="none" xmlns="http://www.w3.org/2000/svg">
<g clip-path="url(#clip0_294_2848)">
<path d="M6 12H4.0725C2.355 12 1.5 11.145 1.5 9.4275V4.0725C1.5 2.355 2.355 1.5 4.0725 1.5H7.5C9.2175 1.5 10.0725 2.355 10.0725 4.0725" stroke="white" stroke-width="1.5" stroke-linecap="round" stroke-linejoin="round"/>
<path d="M13.9277 16.5H10.5002C8.78273 16.5 7.92773 15.645 7.92773 13.9275V8.5725C7.92773 6.855 8.78273 6 10.5002 6H13.9277C15.6452 6 16.5002 6.855 16.5002 8.5725V13.9275C16.5002 15.645 15.6452 16.5 13.9277 16.5Z" stroke="white" stroke-width="1.5" stroke-linecap="round" stroke-linejoin="round"/>
<path d="M11.1523 11.25H13.5973" stroke="white" stroke-width="1.5" stroke-linecap="round" stroke-linejoin="round"/>
<path d="M12.375 12.4725V10.0275" stroke="white" stroke-width="1.5" stroke-linecap="round" stroke-linejoin="round"/>
</g>
<defs>
<clipPath id="clip0_294_2848">
<rect width="18" height="18" fill="white"/>
</clipPath>
</defs>
</svg>
