<svg width="18" height="18" viewBox="0 0 18 18" fill="none" xmlns="http://www.w3.org/2000/svg">
<path d="M10.8979 7.1025L7.10293 10.8975C6.61543 10.41 6.31543 9.7425 6.31543 9C6.31543 7.515 7.51543 6.315 9.00043 6.315C9.74293 6.315 10.4104 6.615 10.8979 7.1025Z" stroke="white" stroke-width="1.5" stroke-linecap="round" stroke-linejoin="round"/>
<path d="M13.3649 4.3275C12.0524 3.3375 10.5524 2.7975 8.99988 2.7975C6.35238 2.7975 3.88488 4.3575 2.16738 7.0575C1.49238 8.115 1.49238 9.8925 2.16738 10.95C2.75988 11.88 3.44988 12.6825 4.19988 13.3275" stroke="white" stroke-width="1.5" stroke-linecap="round" stroke-linejoin="round"/>
<path d="M6.31543 14.6475C7.17043 15.0075 8.07793 15.2025 9.00043 15.2025C11.6479 15.2025 14.1154 13.6425 15.8329 10.9425C16.5079 9.885 16.5079 8.10749 15.8329 7.04999C15.5854 6.65999 15.3154 6.29249 15.0379 5.94749" stroke="white" stroke-width="1.5" stroke-linecap="round" stroke-linejoin="round"/>
<path d="M11.6326 9.52499C11.4376 10.5825 10.5751 11.445 9.51758 11.64" stroke="white" stroke-width="1.5" stroke-linecap="round" stroke-linejoin="round"/>
<path d="M7.1025 10.8975L1.5 16.5" stroke="white" stroke-width="1.5" stroke-linecap="round" stroke-linejoin="round"/>
<path d="M16.5 1.5L10.8975 7.1025" stroke="white" stroke-width="1.5" stroke-linecap="round" stroke-linejoin="round"/>
</svg>
