<svg width="16" height="16" viewBox="0 0 16 16" fill="none" xmlns="http://www.w3.org/2000/svg">
<path d="M11.333 12.2868H8.66634L5.69967 14.2601C5.25967 14.5535 4.66634 14.2402 4.66634 13.7068V12.2868C2.66634 12.2868 1.33301 10.9535 1.33301 8.95349V4.95345C1.33301 2.95345 2.66634 1.62012 4.66634 1.62012H11.333C13.333 1.62012 14.6663 2.95345 14.6663 4.95345V8.95349C14.6663 10.9535 13.333 12.2868 11.333 12.2868Z" stroke="#DE4A09" stroke-miterlimit="10" stroke-linecap="round" stroke-linejoin="round"/>
<path d="M8.0002 7.57324V7.43327C8.0002 6.97993 8.28022 6.73992 8.56022 6.54659C8.83355 6.35992 9.10685 6.11993 9.10685 5.67993C9.10685 5.0666 8.61354 4.57324 8.0002 4.57324C7.38687 4.57324 6.89355 5.0666 6.89355 5.67993" stroke="#DE4A09" stroke-linecap="round" stroke-linejoin="round"/>
<path d="M7.99733 9.16659H8.00333" stroke="#DE4A09" stroke-linecap="round" stroke-linejoin="round"/>
</svg>
