<svg width="20" height="18" viewBox="0 0 20 18" fill="none" xmlns="http://www.w3.org/2000/svg">
<path fill-rule="evenodd" clip-rule="evenodd" d="M2.54149 1.80446C2.98302 0.841021 3.98749 0.25 5.06006 0.25H14.9405C16.0131 0.25 17.0176 0.841021 17.4591 1.80446L17.4592 1.80459L19.1504 5.49726C19.1505 5.49736 19.1505 5.49746 19.1506 5.49756C19.7186 6.73645 19.1747 8.03479 18.1253 8.6742V16.5H18.7503C19.0955 16.5 19.3753 16.7798 19.3753 17.125C19.3753 17.4702 19.0955 17.75 18.7503 17.75H1.25029C0.905116 17.75 0.625293 17.4702 0.625293 17.125C0.625293 16.7798 0.905116 16.5 1.25029 16.5H1.87529V8.6747C0.825782 8.03549 0.28213 6.73678 0.850027 5.49756C0.850051 5.4975 0.850075 5.49745 0.8501 5.4974L2.54149 1.80446ZM3.12529 9.07185V16.5H10.6253V11.1875C10.6253 10.7731 10.7899 10.3757 11.0829 10.0826C11.376 9.78962 11.7734 9.625 12.1878 9.625H14.6878C15.1022 9.625 15.4996 9.78962 15.7926 10.0826C16.0857 10.3757 16.2503 10.7731 16.2503 11.1875V16.5H16.8753V9.07181C16.8366 9.07459 16.7976 9.0766 16.7584 9.07782C16.7519 9.07802 16.7455 9.07812 16.739 9.07812H16.6628C15.7848 9.07812 14.9722 8.69677 14.442 8.08175C13.9117 8.69679 13.0989 9.07812 12.221 9.07812C11.3447 9.07812 10.5418 8.67747 10.0139 8.06675C9.48477 8.69046 8.6669 9.07812 7.78154 9.07812C6.8979 9.07812 6.08867 8.67068 5.56088 8.0512C5.03318 8.671 4.22369 9.07812 3.33975 9.07812H3.26162C3.25524 9.07812 3.24887 9.07803 3.24249 9.07783C3.20318 9.07663 3.16411 9.07463 3.12529 9.07185ZM6.18545 6.41289C6.18545 7.08712 6.86378 7.82812 7.78154 7.82812C8.71312 7.82812 9.37529 7.14652 9.37529 6.41289C9.37529 6.06771 9.65512 5.78789 10.0003 5.78789C10.3455 5.78789 10.6253 6.06771 10.6253 6.41289C10.6253 7.08725 11.3034 7.82812 12.221 7.82812C13.1535 7.82812 13.8171 7.1457 13.8171 6.41289C13.8171 6.06771 14.0969 5.78789 14.4421 5.78789C14.7873 5.78789 15.0671 6.06771 15.0671 6.41289C15.0671 7.14584 15.7305 7.82812 16.6628 7.82812H16.7285C17.8073 7.78911 18.3703 6.79468 18.0142 6.01836L18.0141 6.01807L16.3227 2.32523C16.3227 2.32519 16.3227 2.32514 16.3227 2.3251C16.1032 1.84642 15.5702 1.5 14.9405 1.5H5.06006C4.43034 1.5 3.89735 1.84642 3.6779 2.3251C3.67788 2.32514 3.67786 2.32519 3.67784 2.32523L1.98642 6.01823C1.63006 6.79573 2.19361 7.78979 3.2719 7.82812H3.33975C4.25775 7.82812 4.93545 7.08884 4.93545 6.41289C4.93545 6.06771 5.21527 5.78789 5.56045 5.78789C5.90563 5.78789 6.18545 6.06771 6.18545 6.41289ZM15.0003 16.5V11.1875C15.0003 11.1046 14.9674 11.0251 14.9088 10.9665C14.8502 10.9079 14.7707 10.875 14.6878 10.875H12.1878C12.1049 10.875 12.0254 10.9079 11.9668 10.9665C11.9082 11.0251 11.8753 11.1046 11.8753 11.1875V16.5H15.0003ZM5.31279 10.875C5.22991 10.875 5.15043 10.9079 5.09182 10.9665C5.03322 11.0251 5.00029 11.1046 5.00029 11.1875V14H8.75029V11.1875C8.75029 11.1046 8.71737 11.0251 8.65876 10.9665C8.60016 10.9079 8.52067 10.875 8.43779 10.875H5.31279ZM4.20794 10.0826C4.50096 9.78962 4.89839 9.625 5.31279 9.625H8.43779C8.85219 9.625 9.24962 9.78962 9.54265 10.0826C9.83567 10.3757 10.0003 10.7731 10.0003 11.1875V14.625C10.0003 14.9702 9.72047 15.25 9.37529 15.25H4.37529C4.03012 15.25 3.75029 14.9702 3.75029 14.625V11.1875C3.75029 10.7731 3.91491 10.3757 4.20794 10.0826Z" fill="#979DA7"/>
</svg>
