<svg width="25" height="24" viewBox="0 0 25 24" fill="none" xmlns="http://www.w3.org/2000/svg">
<path d="M22.9998 21H22.4373C22.3876 21 22.3399 20.9802 22.3047 20.9451C22.2696 20.9099 22.2498 20.8622 22.2498 20.8125V12.8208C22.2502 12.791 22.2436 12.7614 22.2303 12.7347C22.217 12.708 22.1976 12.6848 22.1735 12.6671C22.1495 12.6494 22.1216 12.6377 22.0922 12.633C22.0627 12.6282 22.0326 12.6306 22.0042 12.6398C21.5741 12.775 21.1274 12.8504 20.6767 12.8639C20.6214 12.8639 20.5689 12.8663 20.5173 12.8663C19.6505 12.8683 18.7976 12.6482 18.04 12.2269C17.9826 12.195 17.9181 12.1782 17.8525 12.1782C17.7869 12.1782 17.7223 12.195 17.665 12.2269C16.9076 12.6482 16.0548 12.8683 15.1881 12.8663C14.3263 12.8675 13.4789 12.6447 12.729 12.2198C12.6712 12.1871 12.6059 12.1699 12.5394 12.1699C12.473 12.1699 12.4077 12.1871 12.3498 12.2198C11.5887 12.6463 10.7304 12.8691 9.85795 12.8667C8.99031 12.8673 8.1376 12.6411 7.38435 12.2105C7.32607 12.1773 7.26016 12.1599 7.1931 12.1599C7.12604 12.1599 7.06014 12.1773 7.00185 12.2105C6.24861 12.6411 5.39589 12.8673 4.52826 12.8667C4.47717 12.8667 4.4256 12.8667 4.37029 12.8644H4.36748C3.90097 12.8504 3.43884 12.77 2.99498 12.6258C2.96687 12.6167 2.93701 12.6144 2.90784 12.619C2.87867 12.6237 2.85101 12.6351 2.82711 12.6525C2.80321 12.6699 2.78375 12.6926 2.77032 12.7189C2.75689 12.7453 2.74987 12.7744 2.74982 12.8039V20.8125C2.74982 20.8622 2.73007 20.9099 2.6949 20.9451C2.65974 20.9802 2.61205 21 2.56232 21H2.02326C1.61826 21 1.26857 21.3113 1.25076 21.7162C1.2462 21.8175 1.2622 21.9186 1.29778 22.0134C1.33337 22.1083 1.3878 22.195 1.45781 22.2682C1.52781 22.3414 1.61193 22.3997 1.70509 22.4396C1.79824 22.4794 1.8985 22.5 1.99982 22.5H22.9764C23.3814 22.5 23.7311 22.1887 23.7489 21.7838C23.7534 21.6825 23.7374 21.5814 23.7019 21.4866C23.6663 21.3917 23.6118 21.305 23.5418 21.2318C23.4718 21.1586 23.3877 21.1003 23.2946 21.0604C23.2014 21.0206 23.1011 21 22.9998 21ZM10.9998 17.8125C10.9998 17.8622 10.9801 17.9099 10.9449 17.9451C10.9097 17.9802 10.8621 18 10.8123 18H6.68732C6.63759 18 6.5899 17.9802 6.55474 17.9451C6.51958 17.9099 6.49982 17.8622 6.49982 17.8125V14.8125C6.49982 14.6633 6.55909 14.5202 6.66458 14.4148C6.77006 14.3093 6.91314 14.25 7.06232 14.25H10.4373C10.5865 14.25 10.7296 14.3093 10.8351 14.4148C10.9406 14.5202 10.9998 14.6633 10.9998 14.8125V17.8125ZM18.3123 21H14.9373C14.8876 21 14.8399 20.9802 14.8047 20.9451C14.7696 20.9099 14.7498 20.8622 14.7498 20.8125V14.8125C14.7498 14.6633 14.8091 14.5202 14.9146 14.4148C15.0201 14.3093 15.1631 14.25 15.3123 14.25H17.9373C18.0865 14.25 18.2296 14.3093 18.3351 14.4148C18.4406 14.5202 18.4998 14.6633 18.4998 14.8125V20.8125C18.4998 20.8622 18.4801 20.9099 18.4449 20.9451C18.4097 20.9802 18.362 21 18.3123 21Z" fill="#2377F1"/>
<path d="M23.589 7.98187L21.5772 3.36516C21.0503 2.23219 19.847 1.5 18.5115 1.5H6.48576C5.15029 1.5 3.94701 2.23219 3.42013 3.36516L1.40826 7.98187C0.986385 8.89172 1.54373 9.82594 1.5442 9.82641L1.55732 9.8475C1.58029 9.88406 1.62107 9.94125 1.64592 9.97781C1.64826 9.98063 1.65013 9.98391 1.65248 9.98719L1.88685 10.2708C1.89562 10.2815 1.90501 10.2917 1.91498 10.3012L2.14935 10.5277L2.16904 10.5445C2.30668 10.6625 2.45391 10.7688 2.6092 10.8623V10.8647C3.11934 11.1737 3.70055 11.346 4.2967 11.3648C4.33513 11.3648 4.37357 11.3648 4.41248 11.3648C5.31448 11.3665 6.18361 11.0263 6.84482 10.4128L6.86029 10.3983C6.92935 10.3332 7.02065 10.297 7.11553 10.297C7.21041 10.297 7.3017 10.3332 7.37076 10.3983L7.38623 10.4128C8.05448 11.0253 8.92803 11.3651 9.83451 11.3651C10.741 11.3651 11.6145 11.0253 12.2828 10.4128C12.3521 10.3486 12.4431 10.313 12.5376 10.313C12.632 10.313 12.723 10.3486 12.7923 10.4128C13.4586 11.0234 14.3289 11.3629 15.2327 11.3649C16.1364 11.3669 17.0082 11.0312 17.6772 10.4236C17.7455 10.3603 17.8351 10.3252 17.9282 10.3252C18.0213 10.3252 18.1109 10.3603 18.1792 10.4236C18.8489 11.0349 19.7245 11.371 20.6312 11.3648H20.7479C21.3291 11.3431 21.8946 11.1703 22.3886 10.8633C22.4331 10.8366 22.4758 10.8084 22.5189 10.7803C22.852 10.5557 23.142 10.2729 23.3748 9.94547L23.4564 9.82219C23.4645 9.80969 23.472 9.79656 23.4789 9.78281C23.5567 9.62437 23.9739 8.80969 23.589 7.98187Z" fill="#2377F1"/>
</svg>
