<svg width="41" height="40" viewBox="0 0 41 40" fill="none" xmlns="http://www.w3.org/2000/svg">
<path d="M16.333 22.9167C16.333 24.5333 17.583 25.8333 19.1164 25.8333H22.2497C23.583 25.8333 24.6663 24.7 24.6663 23.2834C24.6663 21.7667 23.9997 21.2167 23.0164 20.8667L17.9997 19.1167C17.0163 18.7667 16.3497 18.2334 16.3497 16.7C16.3497 15.3 17.433 14.15 18.7663 14.15H21.8997C23.433 14.15 24.683 15.45 24.683 17.0667" stroke="#13181E" stroke-width="2" stroke-linecap="round" stroke-linejoin="round"/>
<path d="M20.5 12.5V27.5" stroke="#13181E" stroke-width="2" stroke-linecap="round" stroke-linejoin="round"/>
<path d="M37.1663 20C37.1663 29.2 29.6997 36.6667 20.4997 36.6667C11.2997 36.6667 3.83301 29.2 3.83301 20C3.83301 10.8 11.2997 3.33337 20.4997 3.33337" stroke="#13181E" stroke-width="2" stroke-linecap="round" stroke-linejoin="round"/>
<path d="M28.833 5V11.6667H35.4997" stroke="#13181E" stroke-width="2" stroke-linecap="round" stroke-linejoin="round"/>
<path d="M37.1663 3.33337L28.833 11.6667" stroke="#13181E" stroke-width="2" stroke-linecap="round" stroke-linejoin="round"/>
</svg>
