<svg width="25" height="24" viewBox="0 0 25 24" fill="none" xmlns="http://www.w3.org/2000/svg">
<path d="M12.5194 3.12754C9.28864 3.12754 6.66302 5.75317 6.66302 8.98395V11.8048C6.66302 12.4002 6.40924 13.3079 6.10666 13.8155L4.98418 15.6798C4.29117 16.8315 4.76945 18.1102 6.03833 18.5397C10.2452 19.9452 14.7839 19.9452 18.9908 18.5397C20.1718 18.1492 20.6891 16.7535 20.0449 15.6798L18.9224 13.8155C18.6296 13.3079 18.3758 12.4002 18.3758 11.8048V8.98395C18.3758 5.76293 15.7404 3.12754 12.5194 3.12754Z" stroke="#13181E" stroke-width="1.5" stroke-miterlimit="10" stroke-linecap="round"/>
<path d="M14.3253 3.4106C14.0227 3.32276 13.7104 3.25443 13.3883 3.21539C12.4513 3.09826 11.5533 3.16659 10.7139 3.4106C10.9969 2.68831 11.6997 2.18076 12.5196 2.18076C13.3395 2.18076 14.0423 2.68831 14.3253 3.4106Z" stroke="#13181E" stroke-width="1.5" stroke-miterlimit="10" stroke-linecap="round" stroke-linejoin="round"/>
<path opacity="0.4" d="M15.4472 18.891C15.4472 20.5015 14.1295 21.8192 12.519 21.8192C11.7186 21.8192 10.9768 21.4874 10.4498 20.9603C9.92268 20.4332 9.59082 19.6914 9.59082 18.891" stroke="#13181E" stroke-width="1.5" stroke-miterlimit="10"/>
</svg>
