<svg width="20" height="22" viewBox="0 0 20 22" fill="none" xmlns="http://www.w3.org/2000/svg">
<path fill-rule="evenodd" clip-rule="evenodd" d="M7.22343 2.77601C7.55888 1.64942 8.54269 0.5 9.99993 0.5C11.4575 0.5 12.4404 1.64947 12.7784 2.77394C12.7801 2.77603 12.7823 2.77868 12.7853 2.78172C12.7922 2.78895 12.8 2.79559 12.8075 2.80075C12.8131 2.80467 12.8165 2.80636 12.8169 2.80656C13.6652 3.15582 14.6636 3.71371 15.4446 4.73514C16.2318 5.76478 16.7438 7.19413 16.7438 9.18828C16.7438 11.1765 16.9536 12.2668 17.2625 13.0153C17.5334 13.6716 17.8895 14.103 18.3963 14.7168C18.4703 14.8065 18.5476 14.9 18.6282 14.9987L18.6284 14.999C19.5625 16.1431 18.6805 17.75 17.2417 17.75H13.7499C13.7499 18.7446 13.3548 19.6984 12.6516 20.4016C11.9483 21.1049 10.9945 21.5 9.99993 21.5C9.00537 21.5 8.05154 21.1049 7.34828 20.4016C6.64502 19.6984 6.24993 18.7446 6.24993 17.75H2.7629C1.32674 17.75 0.429861 16.1513 1.37164 14.9987C1.45235 14.9 1.52964 14.8063 1.60371 14.7166C2.11044 14.1029 2.46665 13.6714 2.73773 13.0151C3.04692 12.2666 3.25719 11.1763 3.25837 9.18828M7.74993 17.75C7.74993 18.3467 7.98699 18.919 8.40894 19.341C8.8309 19.7629 9.4032 20 9.99993 20C10.5967 20 11.169 19.7629 11.5909 19.341C12.0129 18.919 12.2499 18.3467 12.2499 17.75H7.74993ZM2.7629 16.25C2.60875 16.25 2.53936 16.1791 2.51148 16.1245C2.49543 16.093 2.49062 16.0625 2.49293 16.0369C2.49497 16.0144 2.50333 15.9844 2.53318 15.9479L2.53322 15.9478C2.60566 15.8592 2.67864 15.7712 2.7517 15.6832C3.25444 15.0772 3.76114 14.4666 4.12412 13.5878C4.54136 12.5776 4.75717 11.2622 4.75837 9.18871V9.18828C4.75837 7.46069 5.19568 6.36809 5.74851 5.64523C6.30753 4.91428 7.03998 4.48863 7.75644 4.19357L7.75661 4.1935C8.13847 4.03643 8.51948 3.68648 8.65708 3.21761L8.65763 3.21574C8.87104 2.48152 9.4225 2 9.99993 2C10.5774 2 11.129 2.48116 11.3452 3.2169L11.3458 3.2188C11.4826 3.67986 11.8595 4.03471 12.2457 4.19353C12.9606 4.48786 13.6934 4.91434 14.2529 5.64619C14.8062 6.3699 15.2438 7.4629 15.2438 9.18828C15.2438 11.2617 15.459 12.5773 15.876 13.5876C16.2387 14.4665 16.7455 15.0773 17.2483 15.6833C17.3213 15.7713 17.3942 15.8592 17.4666 15.9478C17.5136 16.0055 17.5174 16.0652 17.4869 16.1254C17.4585 16.1814 17.3902 16.25 17.2417 16.25H2.7629ZM7.22343 2.77601C7.22214 2.77755 7.22052 2.77936 7.21854 2.78141C7.21215 2.78803 7.20461 2.79442 7.19708 2.79961C7.19009 2.80443 7.1859 2.80631 7.1859 2.80631L7.18544 2.8065C6.3368 3.15597 5.338 3.71281 4.55702 4.73399C3.76987 5.76324 3.25844 7.19238 3.25837 9.18785" fill="#07162D"/>
</svg>
