<svg width="33" height="32" viewBox="0 0 33 32" fill="none" xmlns="http://www.w3.org/2000/svg">
<path d="M16.5194 7.12754C13.2886 7.12754 10.663 9.75317 10.663 12.984V15.8048C10.663 16.4002 10.4092 17.3079 10.1067 17.8155L8.98418 19.6798C8.29117 20.8315 8.76945 22.1102 10.0383 22.5397C14.2452 23.9452 18.7839 23.9452 22.9908 22.5397C24.1718 22.1492 24.6891 20.7535 24.0449 19.6798L22.9224 17.8155C22.6296 17.3079 22.3758 16.4002 22.3758 15.8048V12.984C22.3758 9.76293 19.7404 7.12754 16.5194 7.12754Z" stroke="#13181E" stroke-width="1.5" stroke-miterlimit="10" stroke-linecap="round"/>
<path d="M18.3253 7.4106C18.0227 7.32276 17.7104 7.25443 17.3883 7.21539C16.4513 7.09826 15.5533 7.16659 14.7139 7.4106C14.9969 6.68831 15.6997 6.18076 16.5196 6.18076C17.3395 6.18076 18.0423 6.68831 18.3253 7.4106Z" stroke="#13181E" stroke-width="1.5" stroke-miterlimit="10" stroke-linecap="round" stroke-linejoin="round"/>
<path opacity="0.4" d="M19.4472 22.891C19.4472 24.5015 18.1295 25.8192 16.519 25.8192C15.7186 25.8192 14.9768 25.4874 14.4498 24.9603C13.9227 24.4332 13.5908 23.6914 13.5908 22.891" stroke="#13181E" stroke-width="1.5" stroke-miterlimit="10"/>
<circle cx="15.1406" cy="8.01872" r="3.90427" fill="#BD0E0F"/>
</svg>
