<svg width="154" height="154" viewBox="0 0 154 154" fill="none" xmlns="http://www.w3.org/2000/svg">
<path d="M8.96399 148.308C11.6951 151.268 22.9443 146.107 31.8234 141.968C38.4767 138.876 65.1018 127.951 78.3362 122.285C81.9095 120.757 87.107 118.76 90.8487 113.839C94.1693 109.459 102.976 90.8591 85.2421 72.0181C67.2434 52.8884 48.7032 58.1701 41.7732 63.0789C37.6946 65.9664 34.374 72.4753 32.8821 75.7839C26.5777 89.7642 17.5904 115.379 13.9329 125.449C11.2499 132.872 6.25696 145.373 8.96399 148.308Z" fill="#FFC107"/>
<path d="M31.1002 79.9961C31.2686 82.0895 31.6897 85.4944 33.1334 92.0514C34.12 96.5511 35.7322 101.267 37.0436 104.383C40.9778 113.756 46.5002 117.534 52.0947 120.565C61.5994 125.715 68.0602 126.677 68.0602 126.677L60.312 129.842C60.312 129.842 55.6198 128.867 49.2192 125.715C43.1194 122.707 36.7669 117.618 32.1228 107.656C30.1136 103.337 28.9466 99.1498 28.2728 95.8292C27.4427 91.7145 27.3103 89.3805 27.3103 89.3805L31.1002 79.9961ZM21.5834 104.395C21.5834 104.395 22.5459 112.204 28.9947 122.057C36.5503 133.583 47.1017 135.472 47.1017 135.472L40.0875 138.36C40.0875 138.36 32.2552 135.965 24.8078 125.799C20.1638 119.459 18.8644 111.879 18.8644 111.879L21.5834 104.395ZM14.9061 122.9C14.9061 122.9 16.6627 129.637 20.5127 134.666C25.0966 140.67 30.9317 142.414 30.9317 142.414L25.5537 144.796C25.5537 144.796 21.4752 143.942 17.0116 138.288C13.6187 133.992 12.6562 129.06 12.6562 129.06L14.9061 122.9Z" fill="#FF8F00"/>
<path opacity="0.44" d="M11.9837 140.007C11.7431 139.465 11.7431 138.852 11.9957 138.322L42.6393 74.7734L47.6804 93.7227L15.4366 140.296C14.5704 141.595 12.6213 141.427 11.9837 140.007Z" fill="#FFFDE7"/>
<path d="M50.1094 100.088C64.4266 116.835 80.7289 114.742 86.155 110.507C91.5932 106.26 95.8883 91.666 81.6313 75.1952C66.6885 57.9424 49.7725 62.8632 45.8624 66.5928C41.9522 70.3225 36.9713 84.7239 50.1094 100.088Z" fill="url(#paint0_linear_38_20221)"/>
<path d="M99.2837 106.982C94.0622 102.602 91.283 103.384 87.5533 104.936C82.7408 106.933 75.1731 108.413 64.8984 104.936L67.9905 97.4889C74.0903 99.5462 78.5058 98.5477 82.3197 96.2978C87.2284 93.4103 93.9419 89.452 104.385 98.2228C108.74 101.88 113.204 104.311 116.476 103.204C118.859 102.41 120.122 98.8605 120.76 96.0331C120.82 95.7805 120.916 95.0586 120.988 94.4209C121.566 90.0055 122.528 80.4767 129.627 75.6041C137.218 70.3945 145.195 70.3945 145.195 70.3945L146.639 84.7358C142.969 84.1944 140.419 84.9403 138.265 86.1314C130.156 90.6431 137.218 107.968 124.597 113.791C112.458 119.434 102.532 109.701 99.2837 106.982Z" fill="#03A9F4"/>
<path d="M54.6205 88.6944L49.3989 84.0142C58.9878 73.3064 56.4613 65.438 54.6205 59.7111C54.2475 58.5561 53.8986 57.4613 53.67 56.4145C52.8519 52.7089 52.6835 49.4845 52.9361 46.6692C49.2546 42.0853 47.6303 37.2848 47.5221 36.96C45.2842 30.1864 46.9686 23.5812 50.8306 17.3852C58.6389 4.8125 72.7757 4.8125 72.7757 4.8125L77.4919 17.4333C73.9066 17.2889 62.1521 17.4694 58.5427 23.1602C53.9828 30.3308 56.9786 34.7583 57.1952 35.2636C58.0735 34.1206 58.9638 33.2063 59.7578 32.4964C65.5208 27.3831 70.5258 26.6492 73.7141 26.938C77.2994 27.2628 80.5478 29.0675 82.8699 32.0272C85.4085 35.2756 86.4552 39.4986 85.6491 43.3366C84.8671 47.0783 82.3766 50.2425 78.6349 52.2517C72.1019 55.7648 66.6638 55.2836 63.0183 54.0684C63.0424 54.1527 63.0544 54.2489 63.0785 54.3331C63.2108 54.9347 63.4755 55.7769 63.7883 56.7514C65.9178 63.3445 69.8761 73.8117 54.6205 88.6944ZM63.4635 43.5411C64.1613 44.0464 64.8952 44.4675 65.6531 44.7683C68.1797 45.7789 70.9349 45.442 74.063 43.7577C75.9038 42.7711 76.1203 41.7123 76.1925 41.3634C76.4091 40.3167 76.0482 38.9813 75.2661 37.9827C74.5803 37.1044 73.7863 36.6472 72.8358 36.5509C71.0311 36.3945 68.5888 37.5375 66.1464 39.7152C64.9794 40.7619 64.0891 42.0492 63.4635 43.5411Z" fill="#F44336"/>
<path d="M75.5183 90.6559L68.0469 90.4514C68.0469 90.4514 71.5961 70.4073 83.0859 67.0386C85.2395 66.413 87.5977 65.7753 89.9678 65.4264C91.3755 65.2098 93.6012 64.885 94.6961 64.4759C94.9487 62.587 94.1547 60.1808 93.2644 57.4497C92.5666 55.3322 91.8447 53.1545 91.4597 50.7723C90.7137 46.1283 91.953 42.0256 94.9487 39.1983C98.6062 35.7694 104.514 34.6745 111.179 36.1905C114.981 37.0567 117.784 38.9216 120.25 40.5578C123.776 42.9039 125.833 44.095 130.14 41.1955C135.35 37.6823 128.54 23.9306 124.919 15.99L138.43 10.3594C140.246 14.3297 149.017 34.7588 143.23 46.417C141.281 50.3392 137.924 52.938 133.521 53.9125C123.944 56.0541 118.337 52.3244 114.247 49.6053C112.31 48.318 110.613 47.3073 108.773 46.778C95.9834 43.1325 113.838 61.9494 105.476 70.4073C100.459 75.4725 88.1992 76.808 87.4052 77.0005C79.5127 78.9014 75.5183 90.6559 75.5183 90.6559Z" fill="#F48FB1"/>
<path d="M52.9246 46.6699C52.696 49.3168 52.5877 50.8929 53.2735 54.3338C56.5821 56.7641 63.7888 56.7641 63.7888 56.7641C63.476 55.7896 63.1993 54.9474 63.079 54.3459C63.0549 54.2616 63.0429 54.1654 63.0188 54.0812C55.6918 50.4237 52.9246 46.6699 52.9246 46.6699Z" fill="#C92B27"/>
<path d="M37.9364 58.5198L25.4961 52.42L31.6922 43.4688L41.4495 49.9295L37.9364 58.5198Z" fill="#FFC107"/>
<path d="M19.5977 41.6282C13.2452 40.774 6.77234 35.384 6.0625 34.7704L12.3067 27.4434C14.1956 29.0435 18.202 31.7265 20.885 32.0874L19.5977 41.6282Z" fill="#FB8C00"/>
<path d="M30.8117 25.5898L21.668 22.594C22.7147 19.3937 22.9914 15.9407 22.45 12.608L31.9547 11.0801C32.7367 15.9166 32.3397 20.9337 30.8117 25.5898Z" fill="#03A9F4"/>
<path d="M87.9141 18.4382L97.3165 16.3809L100.032 28.7923L90.6295 30.8496L87.9141 18.4382Z" fill="#FB8C00"/>
<path d="M111.242 21.3797L104.625 14.3895C108.09 11.105 108.884 6.80984 108.884 6.76172L118.389 8.31375C118.268 9.07172 117.053 15.8814 111.242 21.3797Z" fill="#FFC107"/>
<path d="M114.914 58.4479L123.32 55.8203L126.191 65.0074L117.785 67.635L114.914 58.4479Z" fill="#FB8C00"/>
<path d="M117.365 135.99L107.8 134.859C108.209 131.454 105.67 127.28 104.973 126.353L112.673 120.578C113.25 121.336 118.267 128.278 117.365 135.99Z" fill="#F44336"/>
<path d="M144.819 123.789C141.222 123.248 137.54 123.031 133.907 123.164L133.582 113.539C137.805 113.394 142.076 113.635 146.251 114.272L144.819 123.789Z" fill="#FB8C00"/>
<path d="M131.879 137.039L138.64 130.189L147.947 139.379L141.185 146.227L131.879 137.039Z" fill="#F48FB1"/>
<path d="M112.014 76.1992L118.968 84.1507L111.017 91.1047L104.062 83.1533L112.014 76.1992Z" fill="#F44336"/>
<defs>
<linearGradient id="paint0_linear_38_20221" x1="89.4925" y1="74.3999" x2="53.6791" y2="95.8877" gradientUnits="userSpaceOnUse">
<stop offset="0.024" stop-color="#8F4700"/>
<stop offset="1" stop-color="#703E2D"/>
</linearGradient>
</defs>
</svg>
