<svg width="25" height="24" viewBox="0 0 25 24" fill="none" xmlns="http://www.w3.org/2000/svg">
<path d="M16.2499 12C15.2862 12 14.3543 11.5697 13.6249 10.7888C12.9157 10.027 12.4826 9.01125 12.4062 7.92938C12.3246 6.77531 12.6767 5.71406 13.3971 4.94063C14.1176 4.16719 15.1249 3.75 16.2499 3.75C17.367 3.75 18.3771 4.17469 19.0953 4.94625C19.8204 5.72531 20.1734 6.78469 20.0918 7.92891C20.0135 9.01219 19.5809 10.0275 18.8731 10.7883C18.1456 11.5697 17.2142 12 16.2499 12Z" fill="#2377F1"/>
<path d="M22.4295 20.25H10.0709C9.87219 20.2511 9.67589 20.2065 9.49711 20.1198C9.31833 20.0331 9.16182 19.9065 9.03963 19.7498C8.91003 19.58 8.82052 19.383 8.77782 19.1736C8.73513 18.9643 8.74034 18.748 8.79307 18.5409C9.18776 16.9561 10.1656 15.6417 11.6206 14.7403C12.912 13.9406 14.5559 13.5 16.2499 13.5C17.9773 13.5 19.5781 13.9219 20.877 14.7211C22.3353 15.6178 23.3145 16.9397 23.7073 18.5438C23.7594 18.751 23.764 18.9673 23.7208 19.1765C23.6777 19.3857 23.5878 19.5825 23.4579 19.7522C23.3359 19.9082 23.1797 20.0341 23.0014 20.1204C22.8232 20.2067 22.6275 20.251 22.4295 20.25Z" fill="#2377F1"/>
<path d="M7.39057 12.1875C5.74104 12.1875 4.29073 10.6538 4.1562 8.76891C4.08963 7.80328 4.39057 6.91031 4.99995 6.25547C5.60276 5.60719 6.45307 5.25 7.39057 5.25C8.32807 5.25 9.17182 5.60906 9.77792 6.26109C10.392 6.92109 10.692 7.81219 10.6217 8.76984C10.4871 10.6542 9.03729 12.1875 7.39057 12.1875Z" fill="#2377F1"/>
<path d="M10.4684 13.6617C9.64385 13.2586 8.5737 13.057 7.39104 13.057C6.0101 13.057 4.66901 13.417 3.61432 14.0705C2.41854 14.8125 1.61417 15.893 1.28932 17.1975C1.24178 17.3851 1.23729 17.5811 1.27617 17.7707C1.31505 17.9603 1.39631 18.1387 1.51385 18.2925C1.62539 18.4357 1.76828 18.5514 1.93154 18.6307C2.0948 18.71 2.27407 18.7508 2.45557 18.75H7.6587C7.74652 18.75 7.83155 18.7192 7.89896 18.6629C7.96638 18.6066 8.0119 18.5284 8.0276 18.442C8.03276 18.4125 8.03932 18.383 8.04682 18.3539C8.44432 16.7573 9.37573 15.4083 10.752 14.4248C10.8026 14.3884 10.8433 14.3398 10.8704 14.2836C10.8975 14.2274 10.9102 14.1653 10.9073 14.103C10.9044 14.0407 10.8859 13.9801 10.8536 13.9267C10.8214 13.8733 10.7763 13.8288 10.7224 13.7972C10.6489 13.7541 10.5645 13.7086 10.4684 13.6617Z" fill="#2377F1"/>
</svg>
