<svg width="20" height="14" viewBox="0 0 20 14" fill="none" xmlns="http://www.w3.org/2000/svg">
<path d="M13.125 7C12.3203 7 11.5469 6.64062 10.9375 5.99219C10.3477 5.35937 9.98439 4.51172 9.92189 3.60937C9.85549 2.64844 10.1485 1.76172 10.7461 1.11719C11.3438 0.476563 12.1875 0.125 13.125 0.125C14.0547 0.125 14.8985 0.480469 15.4961 1.12109C16.1016 1.76953 16.3946 2.65234 16.3242 3.60547C16.2578 4.50781 15.8985 5.35547 15.3086 5.98828C14.7032 6.64062 13.9297 7 13.125 7ZM13.125 1.375C12.5391 1.375 12.0196 1.58594 11.6641 1.96875C11.2969 2.36328 11.1289 2.89844 11.1719 3.51953C11.2149 4.13672 11.4571 4.71484 11.8555 5.14062C12.2227 5.53516 12.6758 5.75 13.125 5.75C13.5782 5.75 14.0274 5.53125 14.3946 5.14062C14.793 4.71484 15.0352 4.14062 15.0782 3.51953C15.1211 2.91797 14.9453 2.36719 14.5782 1.97656C14.2227 1.58594 13.7032 1.375 13.125 1.375Z" fill="#979DA7"/>
<path d="M18.2735 13.8751H7.97659C7.63675 13.8751 7.32425 13.7227 7.11722 13.4571C6.90238 13.1798 6.82425 12.8048 6.91019 12.4493C7.23831 11.129 8.05472 10.0352 9.26566 9.28132C10.3399 8.61335 11.711 8.24617 13.1211 8.24617C14.5586 8.24617 15.8946 8.59773 16.9766 9.2657C18.1914 10.0118 19.0078 11.1134 19.336 12.4493C19.4219 12.8048 19.3438 13.1798 19.1289 13.4571C18.9258 13.7227 18.6133 13.8751 18.2735 13.8751ZM8.16019 12.6251H18.0938C17.4492 10.3204 15.0313 9.50007 13.125 9.50007C11.2266 9.50007 8.81253 10.3204 8.16019 12.6251Z" fill="#979DA7"/>
<path d="M5.74221 7.15617C4.36721 7.15617 3.16018 5.87883 3.04689 4.30851C2.9883 3.50383 3.2383 2.76164 3.74611 2.21476C4.25002 1.6757 4.95705 1.37883 5.7383 1.37883C6.51564 1.37883 7.22268 1.67961 7.72658 2.22258C8.2383 2.77336 8.4883 3.51555 8.42971 4.31242C8.32424 5.87883 7.1133 7.15617 5.74221 7.15617ZM5.74221 2.62492C5.31252 2.62492 4.92971 2.78117 4.66408 3.06633C4.39064 3.3593 4.26174 3.75773 4.29689 4.21867C4.3633 5.13273 5.02346 5.90617 5.74221 5.90617C6.46096 5.90617 7.12502 5.13273 7.18752 4.21867C7.21877 3.76945 7.08596 3.3632 6.81643 3.07023C6.5508 2.78117 6.16799 2.62492 5.74221 2.62492Z" fill="#979DA7"/>
<path d="M6.01565 12.6249H1.62894C1.32034 12.6249 1.03519 12.4843 0.84378 12.246C0.648467 11.996 0.578155 11.6523 0.65628 11.332C0.925811 10.2421 1.59769 9.34368 2.59378 8.72649C3.47269 8.18352 4.58987 7.88274 5.73831 7.88274C6.72269 7.88274 7.56253 8.0468 8.30472 8.38665C8.61722 8.53118 8.75784 8.90227 8.61331 9.21477C8.46878 9.52727 8.09769 9.6679 7.78519 9.52337C7.21097 9.26165 6.543 9.13274 5.74222 9.13274C4.31644 9.13274 2.51565 9.72649 1.94534 11.3788H6.01565C6.3594 11.3788 6.64065 11.6601 6.64065 12.0038C6.64065 12.3476 6.3594 12.6249 6.01565 12.6249Z" fill="#979DA7"/>
</svg>
