<svg width="59" height="57" viewBox="0 0 59 57" fill="none" xmlns="http://www.w3.org/2000/svg">
<path d="M29.7387 54.0917C43.833 54.0917 55.2587 42.666 55.2587 28.5717C55.2587 14.4774 43.833 3.05176 29.7387 3.05176C15.6444 3.05176 4.21875 14.4774 4.21875 28.5717C4.21875 42.666 15.6444 54.0917 29.7387 54.0917Z" fill="#DE4A09"/>
<path d="M35.0234 28.334C35.0234 31.374 32.5634 33.834 29.5234 33.834C26.4834 33.834 24.6334 30.774 24.6334 30.774M24.6334 30.774H27.1134M24.6334 30.774V33.524M24.0234 28.334C24.0234 25.294 26.4634 22.834 29.5234 22.834C33.1934 22.834 35.0234 25.894 35.0234 25.894M35.0234 25.894V23.144M35.0234 25.894H32.5834" stroke="white" stroke-width="1.5" stroke-linecap="round" stroke-linejoin="round"/>
</svg>
