<svg width="20" height="20" viewBox="0 0 20 20" fill="none" xmlns="http://www.w3.org/2000/svg">
<path d="M10 20C4.477 20 0 15.523 0 10C0 4.477 4.477 0 10 0C15.523 0 20 4.477 20 10C20 15.523 15.523 20 10 20ZM10 18C12.1217 18 14.1566 17.1571 15.6569 15.6569C17.1571 14.1566 18 12.1217 18 10C18 7.87827 17.1571 5.84344 15.6569 4.34315C14.1566 2.84285 12.1217 2 10 2C7.87827 2 5.84344 2.84285 4.34315 4.34315C2.84285 5.84344 2 7.87827 2 10C2 12.1217 2.84285 14.1566 4.34315 15.6569C5.84344 17.1571 7.87827 18 10 18ZM9.71011 13.2929C9.31958 13.6834 8.68642 13.6834 8.29589 13.2929L5.467 10.464C5.07654 10.0735 5.07653 9.44046 5.467 9.05C5.85747 8.65953 6.49053 8.65954 6.881 9.05L9.003 11.172L13.9521 6.22198C14.3426 5.8315 14.9757 5.83147 15.3663 6.22178C15.757 6.61227 15.7573 7.24573 15.3666 7.63636L9.71011 13.2929Z" fill="#DE4A09"/>
</svg>
