<svg width="25" height="24" viewBox="0 0 25 24" fill="none" xmlns="http://www.w3.org/2000/svg">
<path d="M18.9707 22.5007C18.8128 22.5013 18.6588 22.4521 18.5305 22.3601L12.5019 17.9895L6.47334 22.3601C6.34454 22.4535 6.18938 22.5035 6.03027 22.503C5.87116 22.5024 5.71636 22.4512 5.58825 22.3569C5.46013 22.2625 5.36534 22.1299 5.31758 21.9781C5.26982 21.8263 5.27156 21.6633 5.32256 21.5126L7.67381 14.5484L1.58006 10.3695C1.44807 10.279 1.34844 10.1488 1.29575 9.99772C1.24306 9.84666 1.24005 9.6827 1.28718 9.5298C1.3343 9.37691 1.42909 9.24309 1.55768 9.1479C1.68628 9.05271 1.84194 9.00114 2.00194 9.00072H9.51975L11.7885 2.01868C11.8374 1.86794 11.9327 1.73656 12.0609 1.64338C12.1891 1.55019 12.3435 1.5 12.5019 1.5C12.6604 1.5 12.8148 1.55019 12.943 1.64338C13.0711 1.73656 13.1665 1.86794 13.2154 2.01868L15.4841 9.00306H23.0019C23.1621 9.00298 23.3181 9.05419 23.4471 9.1492C23.5761 9.24421 23.6713 9.37802 23.7187 9.53103C23.7661 9.68404 23.7633 9.84822 23.7107 9.99952C23.658 10.1508 23.5583 10.2813 23.4262 10.3718L17.3301 14.5484L19.6799 21.5107C19.718 21.6234 19.7287 21.7436 19.7111 21.8613C19.6936 21.979 19.6483 22.0908 19.579 22.1875C19.5097 22.2842 19.4184 22.3631 19.3127 22.4175C19.2069 22.472 19.0897 22.5005 18.9707 22.5007Z" fill="#2377F1"/>
</svg>
