<svg width="20" height="18" viewBox="0 0 20 18" fill="none" xmlns="http://www.w3.org/2000/svg">
<path fill-rule="evenodd" clip-rule="evenodd" d="M10 0.25C10.2708 0.25 10.5108 0.424329 10.5944 0.681821L12.4854 6.5H18.75C19.024 6.5 19.2659 6.67835 19.347 6.93998C19.4281 7.20161 19.3294 7.48555 19.1035 7.64046L14.0247 11.1231L15.9829 16.9251C16.0698 17.1828 15.9802 17.4671 15.7612 17.6283C15.5422 17.7895 15.2441 17.7907 15.0239 17.6311L10 13.9906L4.97616 17.6311C4.75596 17.7907 4.45787 17.7895 4.23888 17.6283C4.0199 17.4671 3.93028 17.1828 4.01724 16.9251L5.97543 11.1231L0.896592 7.64046C0.670692 7.48555 0.571975 7.20161 0.653061 6.93998C0.734146 6.67835 0.976139 6.5 1.25005 6.5H7.51474L9.40565 0.681821C9.48933 0.424329 9.7293 0.25 10 0.25ZM10 2.89709L8.56319 7.31818C8.47951 7.57567 8.23955 7.75 7.9688 7.75H3.26667L7.07225 10.3595C7.30291 10.5177 7.40041 10.8099 7.31098 11.0749L5.82744 15.4705L9.63331 12.7127C9.8521 12.5541 10.148 12.5541 10.3668 12.7127L14.1727 15.4705L12.6891 11.0749C12.5997 10.8099 12.6972 10.5177 12.9278 10.3595L16.7334 7.75H12.0313C11.7605 7.75 11.5206 7.57567 11.4369 7.31818L10 2.89709Z" fill="#979DA7"/>
</svg>
