<svg width="38" height="38" viewBox="0 0 38 38" fill="none" xmlns="http://www.w3.org/2000/svg">
<g filter="url(#filter0_d_185_63530)">
<path d="M18.0621 3.53451C18.3843 2.66389 19.6157 2.66389 19.9379 3.53451L22.0815 9.32767C22.1828 9.60139 22.3986 9.8172 22.6723 9.91848L28.4655 12.0621C29.3361 12.3843 29.3361 13.6157 28.4655 13.9379L22.6723 16.0815C22.3986 16.1828 22.1828 16.3986 22.0815 16.6723L19.9379 22.4655C19.6157 23.3361 18.3843 23.3361 18.0621 22.4655L15.9185 16.6723C15.8172 16.3986 15.6014 16.1828 15.3277 16.0815L9.53451 13.9379C8.66389 13.6157 8.66389 12.3843 9.53451 12.0621L15.3277 9.91848C15.6014 9.8172 15.8172 9.60139 15.9185 9.32767L18.0621 3.53451Z" fill="#DE4A09"/>
</g>
<defs>
<filter id="filter0_d_185_63530" x="0.881836" y="0.881592" width="36.2363" height="36.2368" filterUnits="userSpaceOnUse" color-interpolation-filters="sRGB">
<feFlood flood-opacity="0" result="BackgroundImageFix"/>
<feColorMatrix in="SourceAlpha" type="matrix" values="0 0 0 0 0 0 0 0 0 0 0 0 0 0 0 0 0 0 127 0" result="hardAlpha"/>
<feOffset dy="6"/>
<feGaussianBlur stdDeviation="4"/>
<feComposite in2="hardAlpha" operator="out"/>
<feColorMatrix type="matrix" values="0 0 0 0 0 0 0 0 0 0.333333 0 0 0 0 1 0 0 0 0.2 0"/>
<feBlend mode="normal" in2="BackgroundImageFix" result="effect1_dropShadow_185_63530"/>
<feBlend mode="normal" in="SourceGraphic" in2="effect1_dropShadow_185_63530" result="shape"/>
</filter>
</defs>
</svg>
