<svg width="12" height="13" viewBox="0 0 12 13" fill="none" xmlns="http://www.w3.org/2000/svg">
<path d="M6.86544 2.00482L7.74544 3.76482C7.86544 4.00982 8.18544 4.24482 8.45544 4.28982L10.0504 4.55482C11.0704 4.72482 11.3104 5.46482 10.5754 6.19482L9.33544 7.43482C9.12544 7.64482 9.01044 8.04982 9.07544 8.33982L9.43044 9.87482C9.71044 11.0898 9.06544 11.5598 7.99044 10.9248L6.49544 10.0398C6.22544 9.87982 5.78044 9.87982 5.50544 10.0398L4.01044 10.9248C2.94044 11.5598 2.29044 11.0848 2.57044 9.87482L2.92544 8.33982C2.99044 8.04982 2.87544 7.64482 2.66544 7.43482L1.42544 6.19482C0.695443 5.46482 0.930443 4.72482 1.95044 4.55482L3.54544 4.28982C3.81044 4.24482 4.13044 4.00982 4.25044 3.76482L5.13044 2.00482C5.61044 1.04982 6.39044 1.04982 6.86544 2.00482Z" fill="#FFB82F"/>
</svg>
