<svg width="85" height="70" viewBox="0 0 85 70" fill="none" xmlns="http://www.w3.org/2000/svg">
<path d="M44.2153 60.7581C58.3096 60.7581 69.7352 49.3324 69.7352 35.2382C69.7352 21.1439 58.3096 9.7182 44.2153 9.7182C30.121 9.7182 18.6953 21.1439 18.6953 35.2382C18.6953 49.3324 30.121 60.7581 44.2153 60.7581Z" fill="#DE4A09"/>
<path d="M43.7534 37.4115L45.3091 39.102L53.936 29.7278C54.3133 29.3179 54.9604 29.3179 55.3376 29.7278L55.6012 30.0143C55.9367 30.3788 55.9367 30.9396 55.6012 31.3041L46.0099 41.7263C45.6326 42.1362 44.9856 42.1362 44.6083 41.7263L38.8909 35.5136C38.5554 35.149 38.5554 34.5882 38.8909 34.2237L39.1545 33.9373C39.5318 33.5273 40.1788 33.5273 40.5561 33.9373L42.1966 35.7199L43.7534 37.4103V37.4115ZM44.3491 34.6706C44.0136 34.3062 44.0136 33.7454 44.349 33.3809L48.5109 28.8576C48.8881 28.4476 49.5352 28.4475 49.9125 28.8575L50.1717 29.1392C50.5071 29.5037 50.5072 30.0644 50.1718 30.4289L46.0099 34.9522C45.6327 35.3622 44.9855 35.3623 44.6083 34.9523L44.3491 34.6706ZM40.0473 40.1512C40.3828 40.5157 40.3828 41.0765 40.0473 41.441L39.7848 41.7263C39.4076 42.1362 38.7605 42.1362 38.3832 41.7263L32.6658 35.5136C32.3303 35.149 32.3303 34.5882 32.6658 34.2237L32.9294 33.9373C33.3067 33.5273 33.9537 33.5273 34.331 33.9373L35.187 34.8674L35.1859 34.8686L40.0473 40.1512Z" fill="white"/>
<g filter="url(#filter0_d_185_59068)">
<path d="M8.76769 8.82641C8.9211 8.41183 9.50747 8.41183 9.66088 8.82641L10.6817 11.5851C10.7299 11.7154 10.8327 11.8182 10.963 11.8664L13.7217 12.8872C14.1362 13.0406 14.1362 13.627 13.7217 13.7804L10.963 14.8012C10.8327 14.8494 10.7299 14.9522 10.6817 15.0825L9.66088 17.8412C9.50747 18.2558 8.9211 18.2558 8.76769 17.8412L7.7469 15.0825C7.69867 14.9522 7.5959 14.8494 7.46556 14.8012L4.70691 13.7804C4.29233 13.627 4.29233 13.0406 4.70691 12.8872L7.46556 11.8664C7.5959 11.8182 7.69867 11.7154 7.7469 11.5851L8.76769 8.82641Z" fill="#DE4A09"/>
</g>
<g filter="url(#filter1_d_185_59068)">
<path d="M75.4347 52.6352C75.5881 52.2206 76.1745 52.2206 76.3279 52.6352L77.3487 55.3938C77.3969 55.5242 77.4997 55.6269 77.63 55.6752L80.3887 56.696C80.8032 56.8494 80.8032 57.4358 80.3887 57.5892L77.63 58.61C77.4997 58.6582 77.3969 58.761 77.3487 58.8913L76.3279 61.6499C76.1745 62.0645 75.5881 62.0645 75.4347 61.6499L74.4139 58.8913C74.3657 58.761 74.2629 58.6582 74.1325 58.61L71.3739 57.5892C70.9593 57.4358 70.9593 56.8494 71.3739 56.696L74.1325 55.6752C74.2629 55.627 74.3657 55.5242 74.4139 55.3938L75.4347 52.6352Z" fill="#DE4A09"/>
</g>
<path d="M18.1504 0.644767C18.1887 0.541123 18.3353 0.541122 18.3737 0.644768L19.0127 2.37167C19.0489 2.46942 19.126 2.5465 19.2237 2.58267L20.9506 3.22168C21.0543 3.26004 21.0543 3.40663 20.9506 3.44498L19.2237 4.08399C19.126 4.12017 19.0489 4.19724 19.0127 4.295L18.3737 6.0219C18.3353 6.12554 18.1887 6.12555 18.1504 6.0219L17.5114 4.295C17.4752 4.19724 17.3981 4.12017 17.3004 4.08399L15.5735 3.44498C15.4698 3.40663 15.4698 3.26004 15.5735 3.22168L17.3004 2.58267C17.3981 2.5465 17.4752 2.46942 17.5114 2.37167L18.1504 0.644767Z" stroke="#DE4A09" stroke-width="0.238095"/>
<path d="M80.0547 42.5492C80.093 42.4455 80.2396 42.4455 80.278 42.5492L80.917 44.2761C80.9532 44.3738 81.0302 44.4509 81.128 44.4871L82.8549 45.1261C82.9586 45.1645 82.9586 45.311 82.8549 45.3494L81.128 45.9884C81.0302 46.0246 80.9532 46.1017 80.917 46.1994L80.278 47.9263C80.2396 48.03 80.093 48.03 80.0547 47.9263L79.4157 46.1994C79.3795 46.1017 79.3024 46.0246 79.2047 45.9884L77.4778 45.3494C77.3741 45.311 77.3741 45.1645 77.4778 45.1261L79.2047 44.4871C79.3024 44.4509 79.3795 44.3738 79.4157 44.2761L80.0547 42.5492Z" stroke="#DE4A09" stroke-width="0.238095"/>
<path d="M6.72168 24.4545C6.76004 24.3509 6.90663 24.3509 6.94498 24.4545L7.58399 26.1814C7.62017 26.2792 7.69724 26.3563 7.795 26.3924L9.5219 27.0314C9.62554 27.0698 9.62554 27.2164 9.5219 27.2547L7.795 27.8937C7.69724 27.9299 7.62017 28.007 7.58399 28.1048L6.94498 29.8317C6.90663 29.9353 6.76004 29.9353 6.72168 29.8317L6.08267 28.1048C6.0465 28.007 5.96942 27.9299 5.87167 27.8937L4.14477 27.2547C4.04112 27.2164 4.04112 27.0698 4.14477 27.0314L5.87167 26.3924C5.96942 26.3563 6.0465 26.2792 6.08267 26.1814L6.72168 24.4545Z" stroke="#DE4A09" stroke-width="0.238095"/>
<path d="M66.7217 63.5023C66.76 63.3987 66.9066 63.3987 66.945 63.5023L67.584 65.2292C67.6202 65.327 67.6972 65.404 67.795 65.4402L69.5219 66.0792C69.6255 66.1176 69.6255 66.2642 69.5219 66.3025L67.795 66.9415C67.6972 66.9777 67.6202 67.0548 67.584 67.1525L66.945 68.8794C66.9066 68.9831 66.76 68.9831 66.7217 68.8794L66.0827 67.1525C66.0465 67.0548 65.9694 66.9777 65.8717 66.9415L64.1448 66.3025C64.0411 66.2642 64.0411 66.1176 64.1448 66.0792L65.8717 65.4402C65.9694 65.404 66.0465 65.327 66.0827 65.2292L66.7217 63.5023Z" stroke="#DE4A09" stroke-width="0.238095"/>
<defs>
<filter id="filter0_d_185_59068" x="0.585984" y="6.61074" width="17.2558" height="17.2556" filterUnits="userSpaceOnUse" color-interpolation-filters="sRGB">
<feFlood flood-opacity="0" result="BackgroundImageFix"/>
<feColorMatrix in="SourceAlpha" type="matrix" values="0 0 0 0 0 0 0 0 0 0 0 0 0 0 0 0 0 0 127 0" result="hardAlpha"/>
<feOffset dy="1.90476"/>
<feGaussianBlur stdDeviation="1.90476"/>
<feComposite in2="hardAlpha" operator="out"/>
<feColorMatrix type="matrix" values="0 0 0 0 0 0 0 0 0 0.341177 0 0 0 0 1 0 0 0 0.46 0"/>
<feBlend mode="normal" in2="BackgroundImageFix" result="effect1_dropShadow_185_59068"/>
<feBlend mode="normal" in="SourceGraphic" in2="effect1_dropShadow_185_59068" result="shape"/>
</filter>
<filter id="filter1_d_185_59068" x="67.253" y="50.4195" width="17.2558" height="17.2556" filterUnits="userSpaceOnUse" color-interpolation-filters="sRGB">
<feFlood flood-opacity="0" result="BackgroundImageFix"/>
<feColorMatrix in="SourceAlpha" type="matrix" values="0 0 0 0 0 0 0 0 0 0 0 0 0 0 0 0 0 0 127 0" result="hardAlpha"/>
<feOffset dy="1.90476"/>
<feGaussianBlur stdDeviation="1.90476"/>
<feComposite in2="hardAlpha" operator="out"/>
<feColorMatrix type="matrix" values="0 0 0 0 0 0 0 0 0 0.341177 0 0 0 0 1 0 0 0 0.46 0"/>
<feBlend mode="normal" in2="BackgroundImageFix" result="effect1_dropShadow_185_59068"/>
<feBlend mode="normal" in="SourceGraphic" in2="effect1_dropShadow_185_59068" result="shape"/>
</filter>
</defs>
</svg>
