<svg width="32" height="32" viewBox="0 0 32 32" fill="none" xmlns="http://www.w3.org/2000/svg">
<circle cx="16" cy="16" r="16" fill="#FDF6F3"/>
<path d="M16.0003 16C17.8413 16 19.3337 14.5077 19.3337 12.6667C19.3337 10.8258 17.8413 9.33337 16.0003 9.33337C14.1594 9.33337 12.667 10.8258 12.667 12.6667C12.667 14.5077 14.1594 16 16.0003 16Z" stroke="#DE4A09" stroke-linecap="round" stroke-linejoin="round"/>
<path d="M10.2734 22.6667C10.2734 20.0867 12.8401 18 16.0001 18C16.6401 18 17.2601 18.0867 17.8401 18.2467" stroke="#DE4A09" stroke-linecap="round" stroke-linejoin="round"/>
<path d="M22.6663 20C22.6663 20.5 22.5264 20.9734 22.2797 21.3734C22.1397 21.6134 21.9597 21.8267 21.753 22C21.2863 22.42 20.673 22.6667 19.9997 22.6667C19.0263 22.6667 18.1797 22.1467 17.7197 21.3734C17.473 20.9734 17.333 20.5 17.333 20C17.333 19.16 17.7197 18.4067 18.333 17.92C18.793 17.5534 19.373 17.3334 19.9997 17.3334C21.473 17.3334 22.6663 18.5267 22.6663 20Z" stroke="#DE4A09" stroke-miterlimit="10" stroke-linecap="round" stroke-linejoin="round"/>
<path d="M18.96 20L19.62 20.66L21.04 19.3467" stroke="#DE4A09" stroke-linecap="round" stroke-linejoin="round"/>
</svg>
